<svg width="20" height="29" viewBox="0 0 20 29" fill="none" xmlns="http://www.w3.org/2000/svg">
<path d="M15 9.66664C15 8.33244 14.5117 7.19335 13.5352 6.24935C12.5586 5.30534 11.3802 4.83334 10 4.83334C8.61979 4.83334 7.44138 5.30534 6.46484 6.24935C5.48828 7.19335 5 8.33244 5 9.66664C5 11.0008 5.48828 12.14 6.46484 13.084C7.44138 14.028 8.61979 14.5 10 14.5C11.3802 14.5 12.5586 14.028 13.5352 13.084C14.5117 12.14 15 11.0008 15 9.66664ZM20 9.66664C20 11.0386 19.7852 12.1652 19.3554 13.0462L12.2461 27.6595C12.0378 28.0749 11.7285 28.4021 11.3183 28.6413C10.9082 28.8804 10.4688 29 10 29C9.53124 29 9.09179 28.8804 8.68166 28.6413C8.27152 28.4021 7.96876 28.0749 7.77345 27.6595L0.644531 13.0462C0.214843 12.1652 0 11.0386 0 9.66664C0 6.99824 0.976566 4.72005 2.92969 2.83203C4.88281 0.944011 7.23959 0 10 0C12.7604 0 15.1172 0.944011 17.0703 2.83203C19.0234 4.72005 20 6.99824 20 9.66664Z" fill="red"/>
</svg>
